<svg width="60" height="85" fill="none" xmlns="http://www.w3.org/2000/svg"><g clip-path="url(#a)"><rect width="60" height="85" rx="6" fill="url(#b)"/><path d="M52.64 88A70.06 70.06 0 0 0 62 82.485V81.26A68.999 68.999 0 0 1 50.284 88h2.356ZM61.473 88c.176-.11.352-.222.527-.335V88h-.527ZM29.084 88C41.375 86.749 52.664 82.031 62 74.821v-1.27c-10.915 8.64-24.62 13.782-39.5 13.782A63.191 63.191 0 0 1-2 82.418v1.084A64.045 64.045 0 0 0 15.916 88h13.168Z" fill="#FFCE00"/><path d="M-2 76.505C5.484 79.844 13.775 81.7 22.5 81.7c15.115 0 28.928-5.57 39.5-14.77v-1.334C51.522 74.988 37.678 80.7 22.5 80.7c-8.738 0-17.034-1.893-24.5-5.292v1.097Z" fill="#FFCE00"/><path d="M-2 70.636c7.375 3.684 15.695 5.757 24.5 5.757 15.51 0 29.517-6.432 39.5-16.774v-1.455c-9.842 10.598-23.896 17.23-39.5 17.23-8.822 0-17.15-2.12-24.5-5.879v1.121Z" fill="#FFCE00"/><path d="M-2 63.087c7.181 4.24 15.557 6.673 24.5 6.673 16.331 0 30.768-8.112 39.5-20.526v-1.777C53.55 60.29 39.014 68.76 22.5 68.76A47.04 47.04 0 0 1-2 61.922v1.165Z" fill="#FFCE00"/><path d="M-2 55.157a41.44 41.44 0 0 0 24.5 7.97c18.387 0 33.99-11.921 39.5-28.456v-3.63c-4.292 17.834-20.349 31.086-39.5 31.086A40.448 40.448 0 0 1-2 53.91v1.246Z" fill="#FFCE00"/><path d="M-2 48.313a36.19 36.19 0 0 0 24.5 9.507c20.059 0 36.32-16.261 36.32-36.32A36.176 36.176 0 0 0 50.194-2h-1.326a35.188 35.188 0 0 1 8.952 23.5c0 19.507-15.813 35.32-35.32 35.32-9.514 0-18.15-3.762-24.5-9.879v1.371Z" fill="#FFCE00"/><path d="M-2 40.517c5.674 7.3 14.539 11.996 24.5 11.996 17.128 0 31.013-13.885 31.013-31.013 0-9.394-4.176-17.813-10.774-23.5H41.17c6.912 5.499 11.342 13.982 11.342 23.5 0 16.576-13.437 30.013-30.013 30.013-10.116 0-19.063-5.004-24.5-12.672v1.676Z" fill="#FFCE00"/><path d="M-2 29.306c3.305 10.381 13.024 17.9 24.5 17.9 14.197 0 25.707-11.509 25.707-25.706 0-10.482-6.274-19.499-15.27-23.5h-2.788c9.9 3.22 17.058 12.524 17.058 23.5 0 13.645-11.062 24.707-24.707 24.707C9.943 46.207-.426 36.839-2 24.71v4.596ZM-2 18.29v-4.596A25.78 25.78 0 0 1 12.064-2h2.787C5.931.901-.76 8.74-2 18.29ZM3.829-2A30.186 30.186 0 0 0-2 4.16V2.481A31.2 31.2 0 0 1 2.261-2H3.83ZM55.644-2h1.22A41.473 41.473 0 0 1 62 8.33v3.629A40.436 40.436 0 0 0 55.644-2Z" fill="#FFCE00"/><path fill-rule="evenodd" clip-rule="evenodd" d="M22.5 13.04a8.46 8.46 0 1 0 0 16.92 8.46 8.46 0 0 0 0-16.92Zm-7.46 8.46a7.46 7.46 0 1 1 14.92 0 7.46 7.46 0 0 1-14.92 0Z" fill="#FFCE00"/><path fill-rule="evenodd" clip-rule="evenodd" d="M22.5 7.733c-7.603 0-13.767 6.164-13.767 13.767S14.897 35.267 22.5 35.267 36.267 29.103 36.267 21.5 30.103 7.733 22.5 7.733ZM9.733 21.5c0-7.05 5.716-12.767 12.767-12.767 7.05 0 12.767 5.716 12.767 12.767 0 7.05-5.716 12.767-12.767 12.767-7.05 0-12.767-5.716-12.767-12.767Z" fill="#FFCE00"/><path fill-rule="evenodd" clip-rule="evenodd" d="M22.5 1.1c-11.267 0-20.4 9.133-20.4 20.4s9.133 20.4 20.4 20.4 20.4-9.133 20.4-20.4S33.767 1.1 22.5 1.1ZM3.1 21.5c0-10.714 8.686-19.4 19.4-19.4 10.714 0 19.4 8.686 19.4 19.4 0 10.714-8.686 19.4-19.4 19.4-10.714 0-19.4-8.686-19.4-19.4Z" fill="#FFCE00"/><rect x="5" y="5" width="50" height="48" rx="4" fill="#fff" fill-opacity=".75"/><rect x="5.5" y="5.5" width="49" height="47" rx="3.5" stroke="#fff" stroke-opacity=".5"/><path d="M28.478 14.669a2.216 2.216 0 0 1 2.057-1.383h14.219c1.567 0 2.639 1.572 2.057 3.017L35.922 43.33a2.216 2.216 0 0 1-2.057 1.383H19.646c-1.567 0-2.639-1.572-2.057-3.017L28.478 14.67Z" fill="url(#c)"/><path d="M22.457 32.143a9.429 9.429 0 1 0 0-18.857 9.429 9.429 0 0 0 0 18.857Z" fill="#0A33FF"/><path d="M31.886 22.714a9.429 9.429 0 0 1-10.427 9.377l6.779-16.826a9.413 9.413 0 0 1 3.648 7.45Z" fill="url(#d)"/><path d="M11.161 62.886c-.27 0-.491-.054-.666-.162a.983.983 0 0 1-.375-.458 1.789 1.789 0 0 1-.12-.685v-2.57h.723v2.57c0 .147.007.251.023.313a.19.19 0 0 0 .114.128c.06.02.16.029.301.029h.205l.034.43-.034.405h-.205Z" fill="#19191A"/><path d="M11.302 62.05h.552c.152 0 .262-.028.33-.086.069-.062.1-.149.092-.261a5.359 5.359 0 0 0-.057-.43c-.03-.185-.061-.363-.091-.533l.677-.174c.05.193.093.404.13.632.039.228.06.416.063.563a1.19 1.19 0 0 1-.12.545.988.988 0 0 1-.37.424 1.086 1.086 0 0 1-.597.156h-.609v-.835Zm-.13 1.538h.802v.754H11.17v-.754ZM18.647 62.886a.65.65 0 0 1-.387-.122.815.815 0 0 1-.256-.377 1.846 1.846 0 0 1-.091-.626h.392c0 .112.029.19.086.232.06.039.146.058.256.058h.12l.05.435-.05.4h-.12Zm-3.022-1.444a3.77 3.77 0 0 0-.222.603 2.27 2.27 0 0 0-.074.563c0 .2.028.367.085.499.06.135.155.235.285.301.132.07.31.105.535.105h.49c.242 0 .424-.022.546-.064a.382.382 0 0 0 .244-.22c.046-.105.069-.26.069-.465v-1.82h.723v1.82c0 .488-.13.872-.387 1.155-.255.286-.653.429-1.196.429h-.49c-.34 0-.633-.078-.876-.232a1.477 1.477 0 0 1-.552-.632 2.012 2.012 0 0 1-.188-.876c0-.236.04-.487.12-.754.08-.267.174-.513.284-.737l.604.325Zm.563-1.027H16.991v.754H16.188v-.753Z" fill="#19191A"/><path d="M18.712 62.05h.148a.259.259 0 0 0 .17-.051.351.351 0 0 0 .092-.186l.148-.557c.083-.336.224-.593.421-.771.197-.178.434-.267.712-.267a.99.99 0 0 1 .586.186c.174.12.311.288.41.504.098.213.148.453.148.72 0 .317-.052.578-.154.782a1.042 1.042 0 0 1-.387.447.953.953 0 0 1-.478.134c-.14 0-.29-.031-.45-.093-.16-.062-.406-.174-.74-.337l-.148-.075.319-.713.074.034c.307.151.522.252.643.302.122.046.232.07.33.07a.253.253 0 0 0 .228-.128c.057-.089.085-.228.085-.418 0-.193-.04-.342-.12-.446a.413.413 0 0 0-.62-.052.725.725 0 0 0-.182.36l-.165.637a1.013 1.013 0 0 1-.524.655.823.823 0 0 1-.387.1h-.159v-.836Zm3.33.407-.046.43h-.085a1.01 1.01 0 0 1-.57-.152.915.915 0 0 1-.335-.435 1.842 1.842 0 0 1-.108-.667l.649-.006c0 .124.01.215.028.273a.214.214 0 0 0 .108.122c.05.02.125.029.228.029h.085l.046.406Z" fill="#19191A"/><path d="M21.936 62.05h1.19l.045.407-.045.43h-1.19v-.836Z" fill="#19191A"/><path d="M23.064 62.05h1.19l.046.407-.046.43h-1.19v-.836Z" fill="#19191A"/><path d="M24.193 62.05h1.19l.045.407-.046.43h-1.19v-.836Z" fill="#19191A"/><path d="M25.316 62.05h.631c.171 0 .293-.028.365-.086.072-.062.104-.149.096-.261a4.86 4.86 0 0 0-.056-.435 10.212 10.212 0 0 0-.092-.528l.683-.174c.046.193.088.404.126.632.041.228.062.416.062.563.004.193-.036.377-.12.55-.083.171-.21.31-.38.419a1.16 1.16 0 0 1-.627.156h-.689v-.835Zm-.194 1.55H25.901V64.29h-.779v-.69Zm.734 0h.774v.69h-.774V63.6ZM27.861 59.012h.723v3.874h-.723v-3.874ZM31.476 62.886c-.266 0-.493-.068-.683-.203a1.103 1.103 0 0 1-.404-.528 1.325 1.325 0 0 1-.046-.69c.05-.282.102-.543.16-.783l.665.168-.034.157c-.06.274-.098.47-.114.586a.406.406 0 0 0 .091.33c.08.085.202.128.365.128h2.476c.16 0 .27-.021.33-.064.065-.046.097-.124.097-.232v-.812h.728v.841c0 .1.025.17.074.209.053.039.137.058.25.058h.172l.034.43-.035.405h-.17c-.118 0-.241-.023-.37-.07a.964.964 0 0 1-.342-.226.835.835 0 0 1-.33.22 1.23 1.23 0 0 1-.438.076h-2.476Zm.586-2.784h.78V60.792h-.779v-.69Zm.734 0h.775v.69h-.775V60.102Z" fill="#19191A"/><path d="M35.544 62.05h1.19l.045.407-.046.43h-1.19v-.836Z" fill="#19191A"/><path d="M36.672 62.05h1.19l.045.407-.045.43h-1.19v-.836Z" fill="#19191A"/><path d="M37.778 62.05h.683c.261 0 .51-.022.745-.069.24-.05.467-.12.683-.209.217-.088.452-.206.706-.353l.137-.081.028.278-.188-.075c-.38-.136-.711-.246-.996-.331-.28-.089-.459-.133-.535-.133a.278.278 0 0 0-.199.075.587.587 0 0 0-.142.243l-.638-.208c.087-.302.216-.532.387-.69a.844.844 0 0 1 .592-.238c.14 0 .36.052.66.156.3.1.668.244 1.105.43.14.054.24.094.301.121l.108.91-.216.14c-.307.194-.586.35-.837.47-.246.12-.512.217-.796.29-.281.073-.583.11-.905.11h-.683v-.835Zm.916-3.05h.802v.754h-.802V59ZM41.941 59.012h.723v3.874h-.723v-3.874ZM45.013 60.206c.117.182.22.345.307.488.091.139.19.295.296.47.137.224.209.45.216.678a.96.96 0 0 1-.569.94c-.163.07-.36.104-.592.104h-.302c-.239 0-.45-.039-.631-.116a1.616 1.616 0 0 1-.427-.26l.341-.668.017.017c.088.047.186.091.296.134.114.039.25.058.41.058h.279c.125 0 .22-.01.285-.03a.26.26 0 0 0 .148-.092.179.179 0 0 0 .022-.14.701.701 0 0 0-.096-.208 85.206 85.206 0 0 0-.871-1.322l.609-.464.262.411ZM47.559 60.943v1.636c0 .367-.065.684-.194.951-.125.267-.31.47-.558.609-.242.14-.54.209-.893.209h-.359v-.835h.359c.239 0 .423-.03.552-.087a.486.486 0 0 0 .279-.285c.057-.131.085-.319.085-.562v-1.636h.729Zm0 .841c0 .1.025.17.074.209.053.039.136.058.25.058h.108l.035.423-.035.412h-.108a.641.641 0 0 1-.284-.064.531.531 0 0 1-.21-.203.973.973 0 0 1-.103-.37l.273-.465Z" fill="#19191A"/><path d="M48.184 62.05h.626c.175 0 .298-.028.37-.086.072-.062.105-.149.097-.261a4.829 4.829 0 0 0-.057-.435c-.03-.182-.06-.358-.091-.528l.677-.174c.05.193.093.404.131.632.038.228.059.416.063.563.004.193-.036.377-.12.55-.083.171-.21.31-.381.419a1.18 1.18 0 0 1-.626.156h-.689v-.835Zm.49 2.808v-.586h.682v.586h-.683Zm-.422-.818v-.69h.78v.69h-.78Zm.746 0v-.69h.774v.69h-.774Zm-1.053-1.99h.279l.034.413-.034.423h-.28v-.835Z" fill="#19191A"/><path fill-rule="evenodd" clip-rule="evenodd" d="M18.889 67c.49 0 .889.392.889.875v4.375c0 .483.398.875.889.875h2.666a.882.882 0 0 0 .89-.875v-.875c0-.483.397-.875.888-.875s.889.392.889.875v.875c0 1.45-1.194 2.625-2.667 2.625h-2.666C19.194 74.875 18 73.7 18 72.25v-4.375c0-.483.398-.875.889-.875ZM20.667 76.625c0-.483.398-.875.889-.875h2.666c.491 0 .89.392.89.875v.875a.882.882 0 0 1-.89.875.882.882 0 0 1-.889-.875h-1.777a.882.882 0 0 1-.89-.875ZM16.222 67c.491 0 .89.392.89.875v6.112c0 1.934-1.593 3.513-3.557 3.513-1.963 0-3.555-1.58-3.555-3.513V72.25c0-.483.398-.875.889-.875.49 0 .889.392.889.875v1.737c0 .967.795 1.763 1.777 1.763.982 0 1.778-.796 1.778-1.763v-6.112c0-.483.398-.875.89-.875ZM49.111 69.625a.898.898 0 0 0 .494-.147.863.863 0 0 0 .135-1.346.893.893 0 0 0-.969-.19.886.886 0 0 0-.399.322.866.866 0 0 0 .11 1.104.897.897 0 0 0 .63.257ZM30.445 69.625a.898.898 0 0 0 .493-.147.862.862 0 0 0 .135-1.346.893.893 0 0 0-.969-.19.887.887 0 0 0-.399.322.865.865 0 0 0 .111 1.104.897.897 0 0 0 .629.257ZM49.111 70.5a.896.896 0 0 0-.628.256.868.868 0 0 0-.26.619v3.172c0 .46-.132.766-.281.941a.747.747 0 0 1-.609.262.896.896 0 0 0-.628.256.868.868 0 0 0 0 1.238.896.896 0 0 0 .628.256c.375.005.746-.071 1.087-.225.34-.153.642-.379.883-.662.473-.554.697-1.287.697-2.066v-3.172a.868.868 0 0 0-.26-.619.896.896 0 0 0-.629-.256ZM46.444 71.375a.868.868 0 0 0-.26-.619.896.896 0 0 0-1.257 0 .868.868 0 0 0-.26.619v3.172c0 .46-.132.766-.281.941a.746.746 0 0 1-.608.262.896.896 0 0 0-.629.256.868.868 0 0 0 0 1.238.896.896 0 0 0 .629.256c.374.005.745-.071 1.086-.225.34-.153.643-.379.883-.662.473-.554.697-1.287.697-2.066v-3.172ZM41.111 75.75h-2.667a.896.896 0 0 0-.628.256.868.868 0 0 0 0 1.238.896.896 0 0 0 .628.256h2.667a.896.896 0 0 0 .629-.256.868.868 0 0 0 0-1.238.896.896 0 0 0-.629-.256ZM42.889 71.375a.868.868 0 0 0-.26-.619.896.896 0 0 0-1.258 0 .868.868 0 0 0-.26.619v.963c0 .425-.337.787-.889.787H34.89c-.552 0-.889-.362-.889-.787v-.963a.868.868 0 0 0-.26-.619.896.896 0 0 0-1.257 0 .868.868 0 0 0-.26.619V74c0 .464-.188.91-.521 1.237a1.792 1.792 0 0 1-1.258.513c-.471 0-.923-.184-1.257-.513a1.736 1.736 0 0 1-.52-1.237v-2.625a.868.868 0 0 0-.26-.619.896.896 0 0 0-1.258 0 .868.868 0 0 0-.26.619V74c0 .867.327 1.702.917 2.346a3.597 3.597 0 0 0 4.741.477 3.496 3.496 0 0 0 1.38-2.115c.308.11.634.167.962.167h5.333c1.412 0 2.667-1.03 2.667-2.537v-.963Z" fill="#19191A"/></g><rect x=".5" y=".5" width="59" height="84" rx="5.5" stroke="#fff" stroke-opacity=".5"/><defs><linearGradient id="b" x1="45" y1="22.135" x2="-3.048" y2="103.689" gradientUnits="userSpaceOnUse"><stop offset=".377" stop-color="#FFD60A"/><stop offset="1" stop-color="#F5BE09"/></linearGradient><linearGradient id="c" x1="38.057" y1="13.286" x2="26.18" y2="44.755" gradientUnits="userSpaceOnUse"><stop stop-color="#FFD60A"/><stop offset="1" stop-color="#F5BE09"/></linearGradient><linearGradient id="d" x1="28.169" y1="15.277" x2="21.435" y2="32.061" gradientUnits="userSpaceOnUse"><stop stop-color="#051A80"/><stop offset="1" stop-color="#0A33FF"/></linearGradient><clipPath id="a"><rect width="60" height="85" rx="6" fill="#fff"/></clipPath></defs></svg>